Simulation
nRows=27
nColumns=15
endheader
time  TH_x TH_y TH_z SC_y  SC_z  SC_x  AC_y  AC_z  AC_x  GH_y  GH_z  GH_yy  EL_x  PS_y
1.424999999999999  0.000000  0.000000  0.000000  -29.259474278831988  5.624627210472821  27.700292958599103  58.61268586979448  13.302234299840825  6.360121710045339  38.14221886328488  48.55585856011355  -35.345253721518624  24.795364670636246  120.000000
1.453499999999999  0.000000  0.000000  0.000000  -29.083851935138245  5.679598375162155  26.782504471702325  58.994165988003125  13.04626782794683  5.799849274214398  39.00171821256368  48.14100789329215  -35.61049962546956  24.582630733292866  120.000000
1.4819999999999989  0.000000  0.000000  0.000000  -28.905082181032874  5.707416069945927  25.67924644130226  59.330366727455676  12.78194887059829  5.2785210376165255  39.99534615329468  47.59938619731865  -35.87478290635188  24.35774418715188  120.000000
1.5104999999999988  0.000000  0.000000  0.000000  -28.721653564560057  5.696343271461204  24.417907444106564  59.595178014134355  12.51372026121968  4.817468482573931  41.105750667971314  46.904830858778276  -36.112931787994334  24.122059307878082  120.000000
1.538999999999999  0.000000  0.000000  0.000000  -28.52800967974695  5.640889994740915  23.030305651933393  59.76942475804717  12.248061633846614  4.429724066076903  42.307758863975934  46.031901368261686  -36.29700668865424  23.876807728579564  120.000000
1.567499999999999  0.000000  0.000000  0.000000  -28.316374204837476  5.542656609556901  21.549035203439054  59.843027700423406  11.99236081146837  4.121894720718085  43.57293693901971  44.95832794673096  -36.40082096986863  23.62330641600158  120.000000
1.595999999999999  0.000000  0.000000  0.000000  -28.07625111861494  5.405099908238205  20.003514960102454  59.815555416792556  11.75397576573752  3.894003037243339  44.872155424048195  43.669623755569305  -36.402819154327226  23.3621851566245  120.000000
1.624499999999999  0.000000  0.000000  0.000000  -27.801328132618714  5.233952628988675  18.421111058222813  59.69342487567962  11.539890189890656  3.7416383358839904  46.17786298939777  42.16114620885541  -36.2889626150444  23.09372004613665  120.000000
1.652999999999999  0.000000  0.000000  0.000000  -27.492581873180463  5.036107104560425  16.826848392066374  59.48775736681784  11.356714793404327  3.6567330271765695  47.46595976726004  40.44098653950281  -36.05366575715855  22.817500342237857  120.000000
1.6814999999999989  0.000000  0.000000  0.000000  -27.15905237421413  4.816028792276102  15.243734061199982  59.21301527188532  11.210224260458881  3.627750305669821  48.720264729295714  38.52989633563345  -35.70294283989963  22.53272605861554  120.000000
1.7099999999999989  0.000000  0.000000  0.000000  -26.8165832671719  4.576054666460849  13.690879925736464  58.88474656825986  11.103690673239885  3.641611776253079  49.935225800042325  36.45916712268528  -35.25452875647459  22.238783863132475  120.000000
1.7384999999999988  0.000000  0.000000  0.000000  -26.487831828659235  4.316970341612049  12.184322543914673  58.51701330276959  11.03806089631719  3.6851157392009326  51.11402261376905  34.26622914284038  -34.733091087236055  21.935682918878037  120.000000
1.7669999999999988  0.000000  0.000000  0.000000  -26.19785514852813  4.040247282200068  10.736680065168487  58.122075803115905  11.012807225668453  3.745537401754036  52.2639772648352  31.99090193331296  -34.164751383126884  21.624428054469075  120.000000
1.7954999999999988  0.000000  0.000000  0.000000  -25.969566556386308  3.7484494529167316  9.35878435431301  57.710902874552545  11.026421804224796  3.812598329585756  53.39168606597986  29.67085983705566  -33.569393441538594  21.307762598484462  120.000000
1.8239999999999987  0.000000  0.000000  0.000000  -25.816566414646697  3.4455179233422952  8.059802499451093  57.29408082028607  11.076330392484676  3.879828206755994  54.498166385083394  27.338429627015397  -32.95527940165171  20.990997095170712  120.000000
1.8524999999999987  0.000000  0.000000  0.000000  -25.740469804657675  3.1379088102367443  6.847874096106975  56.88348848669869  11.158675495249314  3.944582517218328  55.57580283294444  25.019276042056603  -32.31604594723368  20.68202542010502  120.000000
1.8809999999999987  0.000000  0.000000  0.000000  -25.729289320537987  2.8332673047842984  5.7299172176961894  56.49184022328068  11.268446448287971  4.007773167016933  56.608948824725076  22.731840371126054  -31.632920306633835  20.390912090508564  120.000000
1.9094999999999986  0.000000  0.000000  0.000000  -25.760889239359127  2.5397924137626844  4.711135508778176  56.131016103621384  11.398460007677562  4.072900209859925  57.578950384105845  20.48983723005484  -30.883056875504543  20.128447765637706  120.000000
1.9379999999999986  0.000000  0.000000  0.000000  -25.808515105012763  2.2656578357240424  3.794514815065821  55.80916087610381  11.539575350052857  4.144269291822998  58.47254082463306  18.303737650413  -30.051004121938547  19.904596212023947  120.000000
1.9664999999999986  0.000000  0.000000  0.000000  -25.847740458638164  2.019502684967634  2.9797893852295694  55.527195971455235  11.681168206609366  4.224127734140045  59.287975034025486  16.18340197159318  -29.138608047314914  19.72679315809134  120.000000
1.9949999999999986  0.000000  0.000000  0.000000  -25.86145951536488  1.810393189330398  2.263705293351588  55.27724904299694  11.812543901784846  4.311518166414532  60.04428311699131  14.13948494228485  -28.175585232431278  19.598902959048484  120.000000
2.0234999999999985  0.000000  0.000000  0.000000  -25.842727757067678  1.6473650455573938  1.6407890293479037  55.04324326790593  11.924204408038067  4.402657062900417  60.788451155287966  12.184416779807753  -27.22610740548811  19.521765138115974  120.000000
2.0519999999999987  0.000000  0.000000  0.000000  -25.793109767006257  1.538478046356971  1.1048333138748863  54.80481964056678  12.008944461748307  4.491907296516039  61.602275743239346  10.331345511922729  -26.392726533496923  19.493776795440077  120.000000
2.0804999999999985  0.000000  0.000000  0.000000  -25.720474639152414  1.4897916679906984  0.6495463679069443  54.54310107033357  12.062489462047273  4.572845953926861  62.61330817190261  8.59313484358267  -25.82288053624629  19.511840130292335  120.000000
2.1089999999999987  0.000000  0.000000  0.000000  -25.633556557223258  1.5034147468811052  0.26936403211877546  54.246198334727424  12.082957720898186  4.639951365750265  64.01977332016045  6.980566516853651  -25.730265745885394  19.5716376999155  120.000000
2.1374999999999984  0.000000  0.000000  0.000000  -25.53967334125382  1.5755555593972768  -0.040631887290135206  53.913371216666235  12.069735189433725  4.69007624138218  66.15173535537899  5.502247926802079  -26.453701019349044  19.6667697617042  120.000000
2.1659999999999986  0.000000  0.000000  0.000000  -25.44161019783304  1.6959005221683707  -0.2850926129734972  53.55617890113864  12.022433635013835  4.723051443805181  69.63341659689925  4.166002573072395  -28.61880039533345  19.78894573299724  120.000000
